<?xml version="1.0" standalone="no"?>
<!DOCTYPE svg PUBLIC "-//W3C//DTD SVG 20010904//EN"
 "http://www.w3.org/TR/2001/REC-SVG-20010904/DTD/svg10.dtd">
<svg version="1.0" xmlns="http://www.w3.org/2000/svg"
 width="256.000000pt" height="256.000000pt" viewBox="0 0 256.000000 256.000000"
 preserveAspectRatio="xMidYMid meet">

<g transform="translate(0.000000,256.000000) scale(0.100000,-0.100000)"
fill="#000000" stroke="none">
<path d="M1100 2488 c0 -3 6 -23 14 -44 7 -22 16 -75 20 -118 4 -44 13 -93 20
-110 13 -31 102 -136 114 -136 4 0 5 51 2 112 -6 137 -20 168 -108 246 -34 30
-62 52 -62 50z"/>
<path d="M1036 2282 c-93 -127 -105 -200 -60 -344 39 -123 30 -162 -76 -323
-27 -42 -52 -85 -55 -96 -10 -29 -27 -11 -61 64 -24 52 -28 75 -29 149 0 49
-1 88 -2 88 -1 0 -12 -21 -23 -47 -12 -27 -53 -98 -91 -160 -102 -162 -123
-227 -122 -383 0 -110 12 -221 30 -267 5 -13 3 -13 -23 0 -37 19 -67 52 -92
102 l-20 40 -7 -78 c-19 -204 42 -438 159 -600 60 -86 180 -197 264 -246 121
-70 300 -120 435 -121 l49 0 -6 308 c-3 169 -8 328 -12 354 l-6 47 62 31 c44
22 60 36 58 48 -5 23 -46 20 -133 -11 -190 -69 -400 -49 -501 47 -40 39 -44
47 -44 91 0 59 27 118 80 177 39 43 39 43 37 14 -4 -54 63 -62 71 -8 4 23 -31
47 -51 36 -7 -5 -7 -1 2 10 21 25 170 94 243 111 35 8 101 15 148 15 204 0
334 -76 424 -250 69 -133 89 -239 112 -587 9 -137 17 -250 19 -252 8 -7 96 76
145 138 114 142 180 326 195 536 6 88 5 90 -12 65 -40 -55 -78 -92 -120 -117
-24 -14 -46 -23 -48 -21 -3 3 7 34 21 69 40 97 74 244 74 317 0 62 -17 143
-29 141 -3 0 -19 -28 -35 -62 -25 -52 -112 -155 -122 -144 -2 2 1 19 6 38 21
78 30 206 20 279 -14 102 -43 166 -142 315 -93 141 -125 214 -135 307 l-6 59
-32 -31 c-52 -50 -84 -127 -111 -261 -14 -68 -36 -148 -51 -179 l-26 -55 -14
85 c-21 133 -56 196 -177 319 -121 124 -139 154 -139 234 0 31 -1 57 -3 57 -1
0 -18 -22 -38 -48z"/>
<path d="M1326 2313 c4 -10 8 -74 9 -143 1 -137 9 -162 73 -223 l29 -28 7 78
c3 43 9 97 12 121 9 64 -16 121 -76 171 -53 45 -67 51 -54 24z"/>
<path d="M842 2151 c-93 -91 -106 -170 -46 -295 32 -66 38 -90 38 -147 1 -38
3 -69 6 -69 3 0 23 30 45 66 49 85 56 147 26 227 -28 77 -41 166 -31 213 5 21
8 40 6 41 -2 2 -22 -14 -44 -36z"/>
<path d="M1049 1144 c-17 -21 0 -48 33 -52 28 -3 42 18 33 49 -8 23 -48 25
-66 3z"/>
</g>
</svg>
